<svg width="184" height="117" viewBox="0 0 184 117" xmlns="http://www.w3.org/2000/svg" xmlns:xlink="http://www.w3.org/1999/xlink"><svg viewBox="-1 -1 17 17" fill-rule="evenodd" clip-rule="evenodd" stroke-linejoin="round" stroke-miterlimit="1.414" width="17" height="17" x="95" y="86" xmlns="http://www.w3.org/2000/svg"><path d="M7.5 6.971A9.596 9.596 0 0 0 .932 4.38v8.03c2.54 0 4.845.984 6.568 2.591a9.63 9.63 0 0 1 6.568-2.591V4.38c-2.54 0-4.845.985-6.568 2.592zm0-2.592a2.186 2.186 0 0 0 2.189-2.19C9.689.979 8.712 0 7.5 0a2.186 2.186 0 0 0-2.189 2.189c0 1.212.977 2.19 2.189 2.19z" fill="#767676" fill-rule="nonzero"/></svg><svg viewBox="-1 -1 78 85" fill-rule="evenodd" clip-rule="evenodd" stroke-linejoin="round" stroke-miterlimit="1.414" width="78" height="85" y="32" xmlns="http://www.w3.org/2000/svg"><path d="M58.345 7.194V0h-2.771v7.194H20.032V0h-2.77v7.194H0v75.998h76V7.194H58.345zm-41.083 2.77v4.581h2.77V9.964h35.541v4.581h2.771V9.964h14.884V23.32H2.771V9.964h14.491zM2.771 80.422V26.089H73.23v54.332H2.771v.001z" fill="#303030" fill-rule="nonzero"/></svg><svg viewBox="-1 -1 16 14" fill-rule="evenodd" clip-rule="evenodd" stroke-linejoin="round" stroke-miterlimit="1.414" width="16" height="14" x="112" y="86" xmlns="http://www.w3.org/2000/svg"><path d="M5.037 12.074c-.284 0-.569-.109-.785-.326L.325 7.822a1.11 1.11 0 1 1 1.57-1.57l3.142 3.14 7.067-7.067a1.11 1.11 0 1 1 1.57 1.57l-7.852 7.853a1.108 1.108 0 0 1-.785.326z" fill="#ed174f" fill-rule="nonzero"/></svg><svg viewBox="-1 -1 17 18" fill-rule="evenodd" clip-rule="evenodd" stroke-linejoin="round" stroke-miterlimit="1.414" width="17" height="18" x="164" y="32" xmlns="http://www.w3.org/2000/svg"><path d="M13.008 2.624l1.982 1.982-9.273 9.273L0 8.162 1.982 6.18l3.735 3.734 7.291-7.29z" fill="#020202" fill-rule="nonzero"/></svg><svg viewBox="-1 -1 17 16" fill-rule="evenodd" clip-rule="evenodd" stroke-linejoin="round" stroke-miterlimit="1.414" width="17" height="16" x="100" y="64" xmlns="http://www.w3.org/2000/svg"><path d="M1.875 2.344V.469a.468.468 0 1 1 .938 0v1.875a.468.468 0 1 1-.938 0zm7.969.469a.47.47 0 0 0 .469-.47V.47a.469.469 0 1 0-.938 0v1.875c0 .259.21.469.469.469zM15 11.25a3.75 3.75 0 1 1-7.5 0 3.75 3.75 0 0 1 7.5 0zm-.937 0a2.816 2.816 0 0 0-2.813-2.813 2.816 2.816 0 0 0-2.812 2.813 2.816 2.816 0 0 0 2.812 2.812 2.816 2.816 0 0 0 2.813-2.812zM3.75 5.625H1.875V7.5H3.75V5.625zm-1.875 4.688H3.75V8.437H1.875v1.876zM4.688 7.5h1.875V5.625H4.688V7.5zm0 2.813h1.875V8.437H4.688v1.876zm-3.75.844v-6.47H11.25v1.876h.938V2.906c0-.57-.455-1.031-1.016-1.031h-.39v.469a.939.939 0 0 1-1.875 0v-.469H3.28v.469a.939.939 0 0 1-1.875 0v-.469h-.39C.455 1.875 0 2.336 0 2.905v8.252c0 .567.455 1.03 1.016 1.03h5.547v-.937H1.016c-.043 0-.078-.044-.078-.093zM9.375 7.5V5.625H7.5V7.5h1.875zm3.281 3.75H11.25V9.844a.468.468 0 1 0-.937 0v1.875c0 .259.21.469.468.469h1.875a.469.469 0 1 0 0-.938z" fill="#767676" fill-rule="nonzero"/></svg><svg viewBox="-1 -1 17 11" xmlns:serif="http://www.serif.com/" fill-rule="evenodd" clip-rule="evenodd" stroke-linejoin="round" stroke-miterlimit="1.414" width="17" height="11" x="117" y="64" xmlns="http://www.w3.org/2000/svg"><path serif:id="Arrow Down Icon" d="M13.8.334L7.871 6.275 1.943.334a1.138 1.138 0 0 0-1.61 0 1.143 1.143 0 0 0 0 1.613l6.71 6.723c.228.229.529.338.828.331.299.007.6-.102.829-.331l6.709-6.723a1.141 1.141 0 0 0 0-1.613 1.136 1.136 0 0 0-1.609 0z" fill="#aaa"/></svg><svg viewBox="-1 -1 184 32" fill-rule="evenodd" clip-rule="evenodd" stroke-linejoin="round" stroke-miterlimit="1.414" width="184" height="32" xmlns="http://www.w3.org/2000/svg"><g fill="#fff" fill-rule="nonzero"><path d="M84.335 0H82.28c4.806 2.854 7.767 6.206 7.767 9.812 0 10.722-22.752 18.627-50.51 18.627-16.043 0-30.322-2.782-39.538-7.114v2.257c9.534 4.392 23.705 7.177 39.536 7.177 29.978 0 51.978-9.147 51.978-20.42 0-3.778-2.619-7.302-7.18-10.34"/><path d="M12.013 17.69L8.22 11.85H7.204l3.394-5.937h-2.52L4.64 11.849l3.728 5.84h3.644zm21.419-9.887h.82c1.464 0 2.115.563 2.115 1.825 0 .704-.202 1.263-.596 1.616-.297.266-.69.346-1.69.346 0 0-.417 0-.65.002v-3.79zm0 5.723h1.392a5.906 5.906 0 0 0 2.002-.27c.96-.316 2.478-1.564 2.478-3.558 0-1.01-.254-1.834-.753-2.449-.767-.946-2.042-1.39-4.011-1.39h-4.005v11.83h2.897v-4.163zM19.969 9.85l1.268 3.132h-2.629L19.97 9.85zm-2.077 4.836l4.057-.003 1.204 3.008h3.37L21.361 5.919H19.53l-5.26 11.77h2.336l1.286-3.004zM3.297 5.913H0V17.69h3.297V5.913zm47.033 9.795h-4.12V5.91h-2.898v11.78h7.018v-1.982zm8.412-5.859l1.267 3.132h-2.624l1.357-3.132zm-2.08 4.835h4.057l1.206 3.006h3.37l-5.16-11.771h-1.833l-5.259 11.77h2.336l1.284-3.005zm15.14 3.006v-7.572c.935 1.402 5.064 7.572 5.064 7.572H79.5V5.91h-2.947v7.536L71.59 5.925l-2.738-.006v11.77h2.949zm29.328-5.387h-1.203c.043-1.195.053-1.893.053-3.105 0-1.312-.01-2.046-.053-3.328h1.203a77.089 77.089 0 0 0-.053 3.328c0 1.212.006 1.91.053 3.105m6.675-6.433h1.057a80.992 80.992 0 0 0-.051 3.328c0 1.212.006 1.91.051 3.104h-1.075c-1.184-1.803-2.533-3.803-3.456-5.085 0 2.195 0 3.39.065 5.085h-1.059a73.94 73.94 0 0 0 .052-3.104c0-1.312-.009-2.046-.052-3.328h1.255a102.59 102.59 0 0 1 3.265 4.73c0-1.967 0-3.162-.052-4.73m6.012 6.433h-1.231c.063-1.283.072-2.022.072-3.33 0-.861-.009-1.489-.034-2.287-.924 0-1.598.01-2.27.061l.33-.877h5.286v.844c-.548-.028-1.38-.028-2.182-.028-.034.809-.034 1.408-.034 2.287 0 1.308.008 2.047.063 3.33m4.98-5.627a69.15 69.15 0 0 0-.027 1.93c.896 0 1.887-.01 2.504-.044v.887a50.71 50.71 0 0 0-2.504-.046c0 .764.009 1.4.027 2.093.951 0 2.171-.009 2.862-.047l-.34.854h-3.697c.045-1.195.052-1.893.052-3.105a81.23 81.23 0 0 0-.052-3.328h3.743v.843c-.557-.037-1.625-.037-2.568-.037m5.859.01c-.017.554-.024 1.6-.024 2.179.114.01.322.01.555.01 1.03 0 1.58-.393 1.58-1.127 0-.695-.568-1.072-1.58-1.072-.209 0-.412 0-.531.01m.028 5.616h-1.203a68.38 68.38 0 0 0 .052-3.104 78.15 78.15 0 0 0-.052-3.328h1.83c1.598 0 2.601.592 2.601 1.783 0 .818-.51 1.401-1.246 1.68a48.369 48.369 0 0 0 1.667 2.748l-1.21.44a55.48 55.48 0 0 1-1.498-2.848 14.533 14.533 0 0 1-.993 0c.007.942.017 1.859.052 2.63m9.926-6.433h1.058a78.548 78.548 0 0 0-.052 3.328c0 1.212.006 1.91.052 3.104h-1.076c-1.185-1.803-2.533-3.803-3.457-5.085 0 2.195 0 3.39.063 5.085h-1.059a70.487 70.487 0 0 0 .054-3.104c0-1.312-.008-2.046-.054-3.328h1.256a103.014 103.014 0 0 1 3.269 4.73c0-1.967 0-3.162-.054-4.73m4.683 3.815h2.136a144.075 144.075 0 0 1-1.017-2.774c-.284.778-.717 1.793-1.119 2.774m-2.188 2.618c.78-1.58 2.08-4.531 2.885-6.479h1.097a116.521 116.521 0 0 0 2.621 6.479h-1.319c-.215-.564-.468-1.195-.693-1.812h-2.717a30.564 30.564 0 0 1-.77 1.812h-1.104zm9.926 0h-1.233c.063-1.283.075-2.022.075-3.33 0-.861-.012-1.489-.036-2.287-.924 0-1.6.01-2.27.061l.329-.877h5.285v.844c-.545-.028-1.38-.028-2.181-.028-.033.809-.033 1.408-.033 2.287 0 1.308.007 2.047.064 3.33m5.033 0h-1.204c.043-1.195.052-1.893.052-3.105 0-1.312-.01-2.046-.052-3.328h1.204a79.434 79.434 0 0 0-.053 3.328c0 1.212.007 1.91.053 3.105m5.353-5.735c-1.319 0-2.142 1.017-2.142 2.511 0 1.52.86 2.513 2.142 2.513 1.32 0 2.162-1.003 2.162-2.513 0-1.513-.877-2.51-2.162-2.51m0-.807c2.04 0 3.413 1.3 3.413 3.239 0 2.063-1.48 3.402-3.413 3.402-2.035 0-3.399-1.283-3.399-3.222 0-2.055 1.473-3.419 3.4-3.419m9.693.108h1.06a79.714 79.714 0 0 0-.056 3.328c0 1.212.01 1.91.056 3.104h-1.078c-1.184-1.803-2.531-3.803-3.456-5.085 0 2.195 0 3.39.066 5.085h-1.063c.049-1.194.056-1.892.056-3.104 0-1.312-.007-2.046-.056-3.328h1.26a103.728 103.728 0 0 1 3.264 4.73c0-1.967 0-3.162-.053-4.73m4.766 3.815h2.133A162.718 162.718 0 0 1 173 6.91c-.287.778-.721 1.793-1.123 2.774m-2.189 2.618c.778-1.58 2.082-4.531 2.887-6.479h1.096a121.516 121.516 0 0 0 2.618 6.479h-1.318c-.214-.564-.466-1.195-.691-1.812h-2.716a26.725 26.725 0 0 1-.776 1.812h-1.1zm9.42-.816c.962 0 2.209-.017 2.892-.056l-.333.872h-3.735c.046-1.195.054-1.893.054-3.105 0-1.312-.008-2.046-.054-3.328h1.202a81.95 81.95 0 0 0-.051 3.328c0 .863.007 1.5.025 2.289m-77.92 5.934a66.774 66.774 0 0 0-.028 1.933c.9 0 1.888-.01 2.509-.045v.89a52.95 52.95 0 0 0-2.51-.044c0 .764.01 1.403.028 2.096.953 0 2.177-.01 2.869-.044l-.343.852h-3.704a71.95 71.95 0 0 0 .053-3.111c0-1.314-.008-2.051-.053-3.338h3.75v.846c-.558-.035-1.628-.035-2.572-.035m9.183-.811h1.06a79.11 79.11 0 0 0-.054 3.338c0 1.214.008 1.915.055 3.111h-1.081c-1.187-1.808-2.537-3.812-3.462-5.1 0 2.205 0 3.401.063 5.1h-1.06a74.3 74.3 0 0 0 .052-3.111c0-1.314-.01-2.051-.052-3.338h1.258a105.33 105.33 0 0 1 3.274 4.741c0-1.97 0-3.166-.053-4.741m8.686 6.188c-.683.25-1.394.36-2.392.36-1.771 0-3.417-1.242-3.417-3.13 0-2.087 1.493-3.525 3.741-3.525.836 0 1.493.15 2.034.375l-.3.803c-.466-.19-1.104-.362-1.661-.362-1.693 0-2.6.983-2.6 2.51 0 1.584 1.115 2.52 2.374 2.52.44 0 .746-.028 1.017-.107.018-.353.018-.63.018-1.01 0-.402 0-.728-.018-1.05h1.204a19.67 19.67 0 0 0-.034 1.248c0 .486 0 .874.034 1.368m3.186-.556c.963 0 2.214-.018 2.897-.057l-.334.874h-3.74a71.97 71.97 0 0 0 .053-3.111c0-1.315-.008-2.051-.053-3.338h1.205a82.548 82.548 0 0 0-.054 3.338c0 .861.01 1.5.026 2.294m5.81.817h-1.205a74.32 74.32 0 0 0 .053-3.111c0-1.314-.01-2.051-.053-3.338h1.204a82.579 82.579 0 0 0-.053 3.338c0 1.213.009 1.915.053 3.111m5.96-5.431a3.276 3.276 0 0 0-1.422-.316c-.809 0-1.215.334-1.215.792 0 .415.199.684 1.043 1.05l.65.291c.989.438 1.41.97 1.41 1.852 0 1.104-1.042 1.862-2.365 1.862-.8 0-1.51-.145-2.104-.423l.323-.802a3.824 3.824 0 0 0 1.727.414c.791 0 1.242-.387 1.242-.864 0-.503-.225-.781-1.016-1.133l-.765-.323c-.873-.387-1.305-.962-1.305-1.773 0-.943.937-1.751 2.312-1.751.746 0 1.286.089 1.8.33l-.316.794zm3.624 1.707h3.21a73.719 73.719 0 0 0-.064-2.726h1.216a80.06 80.06 0 0 0-.056 3.339c0 1.213.01 1.915.056 3.111h-1.216c.045-1.116.055-1.8.065-2.896h-3.211c.009 1.096.017 1.78.052 2.896h-1.204c.045-1.196.053-1.898.053-3.111 0-1.315-.008-2.051-.053-3.339h1.204a100.105 100.105 0 0 0-.052 2.726"/></g></svg><svg viewBox="-1 -1 32 32" fill-rule="evenodd" clip-rule="evenodd" stroke-linejoin="round" stroke-miterlimit="1.414" width="32" height="32" x="78" y="32" xmlns="http://www.w3.org/2000/svg"><path d="M20.605 28.21a.933.933 0 0 0 .674.278.954.954 0 0 0 .674-1.628L10.093 15l11.86-11.86a.954.954 0 0 0-1.348-1.35L8.047 14.327a.954.954 0 0 0 0 1.348L20.605 28.21z" fill="#fff" fill-rule="nonzero"/></svg><svg viewBox="-1 -1 11 14" fill-rule="evenodd" clip-rule="evenodd" stroke-linejoin="round" stroke-miterlimit="1.414" width="11" height="14" x="128" y="86" xmlns="http://www.w3.org/2000/svg"><path d="M8.398 3.108c-.044-.167-.135-.344-.201-.5C7.398.688 5.652 0 4.243 0 2.356 0 .277 1.265 0 3.873v.533c0 .022.008.222.019.322.155 1.243 1.136 2.564 1.868 3.807.788 1.331 1.606 2.641 2.416 3.951.5-.855.997-1.72 1.486-2.553.133-.244.287-.488.42-.721.089-.156.259-.311.336-.455.788-1.443 2.056-2.897 2.056-4.329V3.84c0-.155-.192-.699-.203-.732zM4.277 5.782c-.555 0-1.162-.277-1.461-1.043-.045-.122-.041-.366-.041-.389v-.344c0-.976.829-1.42 1.55-1.42.888 0 1.575.71 1.575 1.598 0 .888-.735 1.598-1.623 1.598z" fill="#202020" fill-rule="nonzero"/></svg><svg viewBox="-1 -1 17 17" fill-rule="evenodd" clip-rule="evenodd" stroke-linejoin="round" stroke-miterlimit="1.414" width="17" height="17" x="78" y="86" xmlns="http://www.w3.org/2000/svg"><path d="M7.5 0a5.749 5.749 0 0 0-5.742 5.742 5.74 5.74 0 0 0 1.167 3.47L7.25 15h.498l4.326-5.788a5.74 5.74 0 0 0 1.167-3.47A5.749 5.749 0 0 0 7.5 0zm0 7.646a1.906 1.906 0 0 1-1.904-1.904c0-1.05.854-1.904 1.904-1.904 1.05 0 1.904.854 1.904 1.904 0 1.05-.854 1.904-1.904 1.904z" fill="#767676" fill-rule="nonzero"/></svg><svg viewBox="-1 -1 22 22" fill-rule="evenodd" clip-rule="evenodd" stroke-linejoin="round" stroke-miterlimit="1.414" width="22" height="22" x="78" y="64" xmlns="http://www.w3.org/2000/svg"><g fill="#fff" fill-rule="nonzero"><path d="M3.25 8.321V7.137c0-.672.544-1.217 1.217-1.217H15.53c.672 0 1.217.545 1.217 1.217V8.32l1.56-1.56a.322.322 0 0 0 .093-.248.321.321 0 0 0-.124-.234L10.746.419a1.217 1.217 0 0 0-1.494 0L1.72 6.279a.321.321 0 0 0-.123.234.322.322 0 0 0 .093.249l1.56 1.56z"/><path d="M19.798 7.713a.323.323 0 0 0-.352.07l-8.258 8.26a1.681 1.681 0 0 1-2.378 0L.55 7.783a.323.323 0 0 0-.352-.07.323.323 0 0 0-.199.298v10.49c0 .736.597 1.333 1.333 1.333h17.331c.737 0 1.334-.597 1.334-1.333V8.012a.324.324 0 0 0-.2-.299z"/><path d="M13.693 7.781H6.305a.667.667 0 0 0 0 1.333h7.388a.667.667 0 0 0 0-1.333zm0 2.667H6.305a.667.667 0 0 0 0 1.333h7.388a.667.667 0 0 0 0-1.333z"/></g></svg><svg viewBox="-1 -1 22 22" fill-rule="evenodd" clip-rule="evenodd" stroke-linejoin="round" stroke-miterlimit="1.414" width="22" height="22" x="142" y="32" xmlns="http://www.w3.org/2000/svg"><g fill="#fff" fill-rule="nonzero"><path d="M19.682 14.524l-2.009-4.667h-3.225a2.147 2.147 0 0 1-2.144-2.144v-.16H7.697v.16a2.13 2.13 0 0 1-.628 1.516c-.4.4-.952.628-1.516.628H2.317l-2 4.674a3.926 3.926 0 0 0 3.609 5.47h12.15a3.925 3.925 0 0 0 3.28-1.767 3.926 3.926 0 0 0 .326-3.71zm-11.72 3.192a.303.303 0 0 1-.303.302H6.657a.303.303 0 0 1-.303-.302v-1.002a.303.303 0 0 1 .303-.302h1.002a.303.303 0 0 1 .302.302v1.002zm0-2.843a.303.303 0 0 1-.303.302H6.657a.303.303 0 0 1-.303-.302v-1.002a.303.303 0 0 1 .303-.303h1.002a.303.303 0 0 1 .302.303v1.002zm0-2.843a.303.303 0 0 1-.303.302H6.657a.303.303 0 0 1-.303-.302v-1.002a.303.303 0 0 1 .303-.303h1.002a.303.303 0 0 1 .302.303v1.002zm2.842 5.686a.303.303 0 0 1-.302.302H9.5a.303.303 0 0 1-.302-.302v-1.002a.303.303 0 0 1 .302-.303h1.002a.303.303 0 0 1 .302.303v1.002zm0-2.843a.303.303 0 0 1-.302.302H9.5a.303.303 0 0 1-.303-.302v-1.002a.303.303 0 0 1 .303-.303h1.002a.303.303 0 0 1 .302.303v1.002zm0-2.843a.303.303 0 0 1-.302.302H9.5a.303.303 0 0 1-.302-.302v-1.002a.303.303 0 0 1 .302-.303h1.002a.303.303 0 0 1 .302.303v1.002zm2.843 5.686a.303.303 0 0 1-.302.302h-1.002a.303.303 0 0 1-.302-.302v-1.002a.303.303 0 0 1 .302-.302h1.002a.303.303 0 0 1 .302.302v1.002zm0-2.843a.303.303 0 0 1-.302.302h-1.002a.303.303 0 0 1-.302-.302v-1.002a.303.303 0 0 1 .302-.303h1.002a.303.303 0 0 1 .302.303v1.002zm0-2.843a.303.303 0 0 1-.302.302h-1.002a.303.303 0 0 1-.302-.302v-1.002a.303.303 0 0 1 .302-.303h1.002a.303.303 0 0 1 .302.303v1.002z"/><path d="M1.158 8.516h4.395a.804.804 0 0 0 .803-.804v-1.5h7.288v1.5c0 .445.36.805.804.805h4.395c.444 0 .804-.36.804-.804v-1.5c0-1.897-4.318-3.435-9.645-3.435H10C4.673 2.778.354 4.316.354 6.212h.003l-.003 1.5c0 .445.36.804.804.804z"/></g></svg><svg viewBox="-1 -1 32 32" fill-rule="evenodd" clip-rule="evenodd" stroke-linejoin="round" stroke-miterlimit="1.414" width="32" height="32" x="110" y="32" xmlns="http://www.w3.org/2000/svg"><path d="M9.395 28.21a.931.931 0 0 1-.674.278.954.954 0 0 1-.674-1.628L19.907 15 8.047 3.14a.954.954 0 0 1 1.348-1.35L21.93 14.327a.954.954 0 0 1 0 1.348L9.395 28.21z" fill="#fff" fill-rule="nonzero"/></svg><svg viewBox="-1 -1 14 14" fill-rule="evenodd" clip-rule="evenodd" stroke-linejoin="round" stroke-miterlimit="1.414" width="14" height="14" x="139" y="86" xmlns="http://www.w3.org/2000/svg"><g fill="#202020" fill-rule="nonzero"><path d="M5.685 0A5.691 5.691 0 0 0 0 5.685a5.691 5.691 0 0 0 5.685 5.685 5.691 5.691 0 0 0 5.685-5.685A5.691 5.691 0 0 0 5.685 0zm0 10.16A4.48 4.48 0 0 1 1.21 5.685 4.48 4.48 0 0 1 5.685 1.21a4.48 4.48 0 0 1 4.475 4.475 4.48 4.48 0 0 1-4.475 4.475z"/><path d="M8.648 5.509H6.093V2.438a.468.468 0 1 0-.936 0v3.54c0 .258.209.468.468.468h3.023a.469.469 0 0 0 0-.937z"/></g></svg></svg>