<?xml version="1.0" encoding="UTF-8" standalone="no"?><!DOCTYPE svg PUBLIC "-//W3C//DTD SVG 1.1//EN" "http://www.w3.org/Graphics/SVG/1.1/DTD/svg11.dtd"><svg width="184" height="117" viewBox="0 0 184 117" xmlns="http://www.w3.org/2000/svg" xmlns:xlink="http://www.w3.org/1999/xlink"><svg viewBox="-1 -1 17 17" fill-rule="evenodd" clip-rule="evenodd" stroke-linejoin="round" stroke-miterlimit="1.414" width="17" height="17" id="booking" x="95" y="86" xmlns="http://www.w3.org/2000/svg"><path d="M7.5 6.971A9.596 9.596 0 0 0 .932 4.38v8.03c2.54 0 4.845.984 6.568 2.591a9.63 9.63 0 0 1 6.568-2.591v-8.03c-2.54 0-4.845.985-6.568 2.592zm0-2.592a2.186 2.186 0 0 0 2.189-2.19C9.689.979 8.712 0 7.5 0a2.186 2.186 0 0 0-2.189 2.189c0 1.212.977 2.19 2.189 2.19z" fill="#767676" fill-rule="nonzero"/></svg><svg viewBox="-1 -1 78 85" fill-rule="evenodd" clip-rule="evenodd" stroke-linejoin="round" stroke-miterlimit="1.414" width="78" height="85" id="calendar" y="32" xmlns="http://www.w3.org/2000/svg"><path d="M58.345 7.194V0h-2.771v7.194H20.032V0h-2.77v7.194H0v75.998h76V7.194H58.345zm-41.083 2.77v4.581h2.77V9.964h35.541v4.581h2.771V9.964h14.884V23.32H2.771V9.964h14.491zM2.771 80.422V26.089H73.23v54.332H2.771v.001z" fill="#303030" fill-rule="nonzero"/></svg><svg viewBox="-1 -1 16 14" fill-rule="evenodd" clip-rule="evenodd" stroke-linejoin="round" stroke-miterlimit="1.414" width="16" height="14" id="check" x="112" y="86" xmlns="http://www.w3.org/2000/svg"><path d="M5.037 12.074c-.284 0-.569-.109-.785-.326L.325 7.822a1.11 1.11 0 1 1 1.57-1.57l3.142 3.14 7.067-7.067a1.11 1.11 0 1 1 1.57 1.57l-7.852 7.853a1.108 1.108 0 0 1-.785.326z" fill="#ed174f" fill-rule="nonzero"/></svg><svg viewBox="-1 -1 17 18" fill-rule="evenodd" clip-rule="evenodd" stroke-linejoin="round" stroke-miterlimit="1.414" width="17" height="18" id="check-dark" x="164" y="32" xmlns="http://www.w3.org/2000/svg"><path d="M13.008 2.624l1.982 1.982-9.273 9.273L0 8.162 1.982 6.18l3.735 3.734 7.291-7.29z" fill="#020202" fill-rule="nonzero"/></svg><svg viewBox="-1 -1 17 16" fill-rule="evenodd" clip-rule="evenodd" stroke-linejoin="round" stroke-miterlimit="1.414" width="17" height="16" id="date" x="100" y="64" xmlns="http://www.w3.org/2000/svg"><path d="M1.875 2.344V.469a.468.468 0 1 1 .938 0v1.875a.468.468 0 1 1-.938 0zm7.969.469c.259 0 .469-.21.469-.47V.47a.469.469 0 1 0-.938 0v1.875c0 .259.21.469.469.469zM15 11.25a3.75 3.75 0 1 1-7.5 0 3.75 3.75 0 0 1 7.5 0zm-.937 0a2.816 2.816 0 0 0-2.813-2.813 2.816 2.816 0 0 0-2.812 2.813 2.816 2.816 0 0 0 2.812 2.812 2.816 2.816 0 0 0 2.813-2.812zM3.75 5.625H1.875V7.5H3.75V5.625zm-1.875 4.688H3.75V8.437H1.875v1.876zM4.688 7.5h1.875V5.625H4.688V7.5zm0 2.813h1.875V8.437H4.688v1.876zm-3.75.844v-6.47H11.25v1.876h.938V2.906c0-.57-.455-1.031-1.016-1.031h-.39v.469a.939.939 0 0 1-1.875 0v-.469H3.28v.469a.939.939 0 0 1-1.875 0v-.469h-.39C.455 1.875 0 2.336 0 2.905v8.252c0 .567.455 1.03 1.016 1.03h5.547v-.937H1.016c-.043 0-.078-.044-.078-.093zM9.375 7.5V5.625H7.5V7.5h1.875zm3.281 3.75H11.25V9.844a.468.468 0 1 0-.937 0v1.875c0 .259.21.469.468.469h1.875a.469.469 0 1 0 0-.938z" fill="#767676" fill-rule="nonzero"/></svg><svg viewBox="-1 -1 17 11" xmlns:serif="http://www.serif.com/" fill-rule="evenodd" clip-rule="evenodd" stroke-linejoin="round" stroke-miterlimit="1.414" width="17" height="11" id="down-arrow" x="117" y="64" xmlns="http://www.w3.org/2000/svg"><path serif:id="Arrow Down Icon" d="M13.8.334L7.871 6.275 1.943.334a1.138 1.138 0 0 0-1.61 0 1.143 1.143 0 0 0 0 1.613l6.71 6.723c.228.229.529.338.828.331.299.007.6-.102.829-.331l6.709-6.723a1.141 1.141 0 0 0 0-1.613 1.136 1.136 0 0 0-1.609 0z" fill="#aaa"/></svg><svg viewBox="-1 -1 184 32" fill-rule="evenodd" clip-rule="evenodd" stroke-linejoin="round" stroke-miterlimit="1.414" width="184" height="32" id="kaplan-logo" xmlns="http://www.w3.org/2000/svg"><g transform="translate(-12.095 -11.774) scale(.70756)" fill="#fff" fill-rule="nonzero"><path d="M136.285 16.64h-2.902c6.792 4.034 10.977 8.771 10.977 13.868 0 15.153-32.156 26.325-71.388 26.325-22.672 0-42.853-3.932-55.878-10.054v3.19c13.475 6.207 33.502 10.143 55.876 10.143 42.369 0 73.462-12.928 73.462-28.86 0-5.339-3.702-10.319-10.147-14.612"/><path d="M34.072 41.641l-5.36-8.254h-1.437l4.797-8.39H28.51l-4.857 8.39 5.269 8.254h5.15zm30.271-13.973h1.159c2.07 0 2.99.796 2.99 2.58 0 .994-.286 1.784-.843 2.284-.42.375-.974.488-2.387.488-.002 0-.591 0-.919.004v-5.356zm0 8.089h1.968c.173.01 1.493.063 2.829-.381 1.356-.447 3.503-2.212 3.503-5.029 0-1.429-.359-2.592-1.065-3.461-1.084-1.337-2.885-1.965-5.669-1.965H60.25v16.72h4.093v-5.884zM45.317 30.56l1.791 4.427h-3.715l1.924-4.427zm-2.936 6.835l5.733-.004 1.702 4.25h4.762l-7.293-16.636h-2.589l-7.435 16.636h3.302l1.818-4.246zM21.753 24.997h-4.659v16.644h4.659V24.997zM88.226 38.84h-5.824V24.993h-4.095v16.648h9.919V38.84zm11.889-8.28l1.79 4.427h-3.708l1.918-4.427zm-2.939 6.833h5.732l1.705 4.248h4.764l-7.295-16.636h-2.589L92.06 41.641h3.301l1.815-4.248zm21.396 4.248V30.94c1.322 1.981 7.157 10.701 7.157 10.701h3.725V24.993h-4.166v10.651l-7.014-10.63-3.87-.009v16.636h4.168zM160.022 34.028h-1.701c.062-1.688.075-2.675.075-4.388 0-1.855-.013-2.892-.075-4.703h1.701a108.95 108.95 0 0 0-.075 4.703c0 1.713.008 2.7.075 4.388M169.455 24.936h1.495a114.467 114.467 0 0 0-.073 4.704c0 1.713.009 2.699.073 4.387h-1.52c-1.673-2.549-3.58-5.375-4.884-7.187 0 3.103 0 4.79.091 7.187h-1.496a104.5 104.5 0 0 0 .074-4.387c0-1.855-.013-2.892-.074-4.704h1.774a144.992 144.992 0 0 1 4.614 6.685c0-2.779 0-4.468-.074-6.685M177.952 34.028h-1.74c.09-1.813.103-2.857.103-4.706 0-1.217-.013-2.104-.049-3.232-1.306 0-2.258.013-3.207.086l.465-1.239h7.471v1.192c-.774-.039-1.951-.039-3.083-.039-.048 1.143-.048 1.99-.048 3.232 0 1.849.011 2.893.088 4.706M184.99 26.076a97.73 97.73 0 0 0-.038 2.728c1.267 0 2.667-.015 3.54-.063v1.254c-.901-.052-2.31-.065-3.54-.065 0 1.08.013 1.979.038 2.958 1.345 0 3.069-.013 4.046-.067l-.481 1.207h-5.225c.064-1.688.073-2.675.073-4.388 0-1.855-.009-2.892-.073-4.704h5.29v1.192c-.787-.052-2.297-.052-3.63-.052M193.271 26.089c-.024.784-.034 2.261-.034 3.08.162.015.456.015.785.015 1.455 0 2.232-.556 2.232-1.594 0-.981-.802-1.514-2.232-1.514-.295 0-.583 0-.751.013m.04 7.938h-1.7c.066-1.688.073-2.674.073-4.387 0-1.855-.007-2.901-.073-4.704h2.587c2.258 0 3.675.837 3.675 2.52 0 1.156-.722 1.981-1.761 2.374a68.36 68.36 0 0 0 2.356 3.884l-1.711.621c-.683-1.186-1.516-2.807-2.116-4.024a20.54 20.54 0 0 1-1.404 0c.01 1.332.024 2.627.074 3.716M207.34 24.936h1.495a111.013 111.013 0 0 0-.074 4.704c0 1.713.008 2.699.074 4.387h-1.521c-1.675-2.549-3.58-5.375-4.886-7.187 0 3.103 0 4.79.089 7.187h-1.496a99.62 99.62 0 0 0 .076-4.387c0-1.855-.012-2.892-.076-4.704h1.775a145.59 145.59 0 0 1 4.619 6.685c0-2.779 0-4.468-.075-6.685M213.958 30.328h3.019a203.623 203.623 0 0 1-1.437-3.921c-.402 1.1-1.014 2.535-1.582 3.921m-3.093 3.7c1.102-2.234 2.94-6.404 4.078-9.156h1.551a164.68 164.68 0 0 0 3.704 9.156h-1.864c-.304-.797-.662-1.688-.98-2.56h-3.84c-.355.912-.737 1.81-1.089 2.56h-1.56zM224.894 34.028h-1.743c.09-1.813.106-2.857.106-4.706 0-1.217-.016-2.104-.05-3.232-1.307 0-2.261.013-3.21.086l.466-1.239h7.47v1.192c-.77-.039-1.951-.039-3.083-.039-.047 1.143-.047 1.99-.047 3.232 0 1.849.011 2.893.091 4.706M232.007 34.028h-1.702c.061-1.688.074-2.675.074-4.388 0-1.855-.013-2.892-.074-4.703h1.702a112.265 112.265 0 0 0-.075 4.703c0 1.713.01 2.7.075 4.388M239.573 25.923c-1.864 0-3.027 1.437-3.027 3.549 0 2.149 1.215 3.552 3.027 3.552 1.865 0 3.055-1.418 3.055-3.552 0-2.139-1.239-3.549-3.055-3.549m0-1.139c2.882 0 4.823 1.836 4.823 4.577 0 2.916-2.092 4.809-4.823 4.809-2.876 0-4.804-1.814-4.804-4.554 0-2.904 2.081-4.832 4.804-4.832M253.273 24.936h1.498a112.66 112.66 0 0 0-.079 4.704c0 1.713.014 2.699.079 4.387h-1.523c-1.674-2.549-3.578-5.375-4.885-7.187 0 3.103 0 4.79.093 7.187h-1.501c.068-1.688.078-2.674.078-4.387 0-1.855-.01-2.892-.078-4.704h1.779a146.599 146.599 0 0 1 4.614 6.685c0-2.779 0-4.468-.075-6.685M260.009 30.328h3.015a229.97 229.97 0 0 1-1.429-3.921c-.405 1.1-1.018 2.535-1.586 3.921m-3.093 3.7c1.099-2.234 2.942-6.404 4.08-9.156h1.549a171.74 171.74 0 0 0 3.699 9.156h-1.862c-.303-.797-.659-1.688-.977-2.56h-3.839a37.77 37.77 0 0 1-1.096 2.56h-1.554zM270.229 32.875c1.359 0 3.121-.024 4.087-.079l-.471 1.232h-5.279c.065-1.688.077-2.675.077-4.388 0-1.855-.012-2.892-.077-4.703h1.7a115.82 115.82 0 0 0-.073 4.703c0 1.219.01 2.119.036 3.235M160.103 41.261a94.372 94.372 0 0 0-.039 2.732c1.272 0 2.669-.013 3.546-.063v1.258c-.902-.05-2.314-.062-3.546-.062 0 1.079.013 1.982.039 2.962 1.346 0 3.076-.013 4.054-.063l-.484 1.205h-5.235c.063-1.691.075-2.682.075-4.397 0-1.857-.012-2.899-.075-4.718h5.299v1.196c-.788-.05-2.3-.05-3.634-.05M173.081 40.115h1.499a111.807 111.807 0 0 0-.078 4.718c0 1.715.012 2.706.078 4.397h-1.528c-1.677-2.556-3.585-5.388-4.893-7.208 0 3.116 0 4.807.09 7.208h-1.499c.061-1.691.074-2.682.074-4.397 0-1.857-.013-2.899-.074-4.718h1.779a148.865 148.865 0 0 1 4.626 6.701c0-2.785 0-4.475-.074-6.701M185.357 48.861c-.965.354-1.97.51-3.381.51-2.503 0-4.829-1.757-4.829-4.426 0-2.948 2.11-4.981 5.287-4.981 1.182 0 2.11.213 2.874.53l-.422 1.135c-.66-.268-1.561-.511-2.349-.511-2.392 0-3.675 1.389-3.675 3.547 0 2.238 1.576 3.56 3.356 3.56.622 0 1.054-.038 1.437-.15.025-.499.025-.891.025-1.428 0-.568 0-1.028-.025-1.484h1.702a27.8 27.8 0 0 0-.049 1.765c0 .686 0 1.234.049 1.933M189.86 48.075c1.36 0 3.128-.025 4.094-.08l-.472 1.235h-5.286c.063-1.691.075-2.683.075-4.397 0-1.858-.012-2.899-.075-4.718h1.703c-.063 1.819-.076 2.86-.076 4.718 0 1.217.013 2.12.037 3.242M198.07 49.23h-1.702c.061-1.691.074-2.683.074-4.397 0-1.857-.013-2.899-.074-4.718h1.702a116.709 116.709 0 0 0-.075 4.718c0 1.714.012 2.706.075 4.397M206.492 41.554a4.63 4.63 0 0 0-2.009-.447c-1.143 0-1.717.472-1.717 1.12 0 .586.281.967 1.474 1.485l.918.41c1.398.619 1.994 1.372 1.994 2.618 0 1.56-1.474 2.631-3.343 2.631-1.13 0-2.133-.205-2.974-.598l.457-1.133a5.405 5.405 0 0 0 2.441.585c1.118 0 1.755-.547 1.755-1.221 0-.711-.318-1.104-1.436-1.602l-1.081-.456c-1.234-.547-1.844-1.359-1.844-2.506 0-1.333 1.323-2.475 3.267-2.475 1.055 0 1.817.126 2.544.467l-.446 1.122zM211.614 43.967h4.538a104.187 104.187 0 0 0-.091-3.853h1.718c-.065 1.82-.079 2.861-.079 4.719 0 1.714.014 2.706.079 4.397h-1.718c.063-1.578.078-2.544.091-4.093h-4.538c.013 1.549.024 2.515.074 4.093h-1.702c.064-1.691.075-2.683.075-4.397 0-1.858-.011-2.899-.075-4.719h1.702c-.05 1.49-.061 2.468-.074 3.853"/></g></svg><svg viewBox="-1 -1 32 32" fill-rule="evenodd" clip-rule="evenodd" stroke-linejoin="round" stroke-miterlimit="1.414" width="32" height="32" id="left-arrow" x="78" y="32" xmlns="http://www.w3.org/2000/svg"><path d="M20.605 28.21c.186.185.418.278.674.278a.954.954 0 0 0 .674-1.628L10.093 15l11.86-11.86a.954.954 0 0 0-1.348-1.35L8.047 14.327a.954.954 0 0 0 0 1.348L20.605 28.21z" fill="#fff" fill-rule="nonzero"/></svg><svg viewBox="-1 -1 11 14" fill-rule="evenodd" clip-rule="evenodd" stroke-linejoin="round" stroke-miterlimit="1.414" width="11" height="14" id="loc" x="128" y="86" xmlns="http://www.w3.org/2000/svg"><path d="M8.398 3.108c-.044-.167-.135-.344-.201-.5C7.398.688 5.652 0 4.243 0 2.356 0 .277 1.265 0 3.873v.533c0 .022.008.222.019.322.155 1.243 1.136 2.564 1.868 3.807.788 1.331 1.606 2.641 2.416 3.951.5-.855.997-1.72 1.486-2.553.133-.244.287-.488.42-.721.089-.156.259-.311.336-.455.788-1.443 2.056-2.897 2.056-4.329V3.84c0-.155-.192-.699-.203-.732zM4.277 5.782c-.555 0-1.162-.277-1.461-1.043-.045-.122-.041-.366-.041-.389v-.344c0-.976.829-1.42 1.55-1.42.888 0 1.575.71 1.575 1.598 0 .888-.735 1.598-1.623 1.598z" fill="#202020" fill-rule="nonzero"/></svg><svg viewBox="-1 -1 17 17" fill-rule="evenodd" clip-rule="evenodd" stroke-linejoin="round" stroke-miterlimit="1.414" width="17" height="17" id="location" x="78" y="86" xmlns="http://www.w3.org/2000/svg"><path d="M7.5 0a5.749 5.749 0 0 0-5.742 5.742 5.74 5.74 0 0 0 1.167 3.47L7.25 15h.498l4.326-5.788a5.74 5.74 0 0 0 1.167-3.47A5.749 5.749 0 0 0 7.5 0zm0 7.646a1.906 1.906 0 0 1-1.904-1.904c0-1.05.854-1.904 1.904-1.904 1.05 0 1.904.854 1.904 1.904 0 1.05-.854 1.904-1.904 1.904z" fill="#767676" fill-rule="nonzero"/></svg><svg viewBox="-1 -1 22 22" fill-rule="evenodd" clip-rule="evenodd" stroke-linejoin="round" stroke-miterlimit="1.414" width="22" height="22" id="mail" x="78" y="64" xmlns="http://www.w3.org/2000/svg"><g transform="scale(.04086)" fill="#fff" fill-rule="nonzero"><path d="M79.538 203.658v-28.994c0-16.45 13.327-29.776 29.776-29.776h270.797c16.449 0 29.776 13.326 29.776 29.776v28.98l38.157-38.156a7.89 7.89 0 0 0 2.293-6.079 7.864 7.864 0 0 0-3.033-5.742L262.99 10.25c-10.752-8.364-25.809-8.364-36.563 0L42.107 153.666a7.866 7.866 0 0 0-3.034 5.742 7.885 7.885 0 0 0 2.294 6.079l38.171 38.171z"/><path d="M484.544 188.778a7.917 7.917 0 0 0-8.618 1.721L273.809 392.616a41.141 41.141 0 0 1-58.205 0L13.494 190.508a7.9 7.9 0 0 0-8.618-1.713A7.9 7.9 0 0 0 0 196.092v256.722c0 18.019 14.608 32.628 32.627 32.628h424.164c18.018 0 32.627-14.609 32.627-32.628v-256.73a7.92 7.92 0 0 0-4.874-7.306z"/><path d="M335.121 190.435H154.305c-9.008 0-16.314 7.304-16.314 16.314 0 9.009 7.306 16.313 16.314 16.313h180.816c9.01 0 16.314-7.305 16.314-16.313 0-9.01-7.304-16.314-16.314-16.314zM335.121 255.691H154.305c-9.008 0-16.314 7.304-16.314 16.314 0 9.009 7.306 16.314 16.314 16.314h180.816c9.01 0 16.314-7.305 16.314-16.314 0-9.01-7.304-16.314-16.314-16.314z"/></g></svg><svg viewBox="-1 -1 22 22" fill-rule="evenodd" clip-rule="evenodd" stroke-linejoin="round" stroke-miterlimit="1.414" width="22" height="22" id="phone" x="142" y="32" xmlns="http://www.w3.org/2000/svg"><g transform="matrix(.04059 0 0 .04059 0 1.389)" fill="#fff" fill-rule="nonzero"><path d="M484.899 323.597l-49.486-114.97h-79.456c-29.136 0-52.835-23.699-52.835-52.833v-3.942H189.628v3.935c0 14.111-5.498 27.376-15.481 37.358-9.831 9.838-23.441 15.474-37.351 15.474H57.094L7.802 323.775a96.721 96.721 0 0 0 88.919 134.782h299.342a96.696 96.696 0 0 0 80.78-43.544 96.716 96.716 0 0 0 8.056-91.416zm-288.764 78.644a7.454 7.454 0 0 1-7.449 7.451h-24.684a7.455 7.455 0 0 1-7.452-7.451v-24.683a7.454 7.454 0 0 1 7.452-7.451h24.684a7.453 7.453 0 0 1 7.449 7.451v24.683zm0-70.041a7.453 7.453 0 0 1-7.449 7.451h-24.684a7.455 7.455 0 0 1-7.452-7.451v-24.69a7.454 7.454 0 0 1 7.452-7.451h24.684a7.453 7.453 0 0 1 7.449 7.451v24.69zm0-70.048a7.453 7.453 0 0 1-7.449 7.451h-24.684a7.455 7.455 0 0 1-7.452-7.451V237.47a7.454 7.454 0 0 1 7.452-7.451h24.684a7.453 7.453 0 0 1 7.449 7.451v24.682zm70.048 140.089a7.454 7.454 0 0 1-7.449 7.451H234.05a7.454 7.454 0 0 1-7.452-7.451v-24.69a7.454 7.454 0 0 1 7.452-7.451h24.683a7.453 7.453 0 0 1 7.449 7.451v24.69h.001zm0-70.041a7.453 7.453 0 0 1-7.449 7.451h-24.69a7.454 7.454 0 0 1-7.452-7.451v-24.69a7.454 7.454 0 0 1 7.452-7.451h24.69a7.453 7.453 0 0 1 7.449 7.451v24.69zm0-70.048a7.453 7.453 0 0 1-7.449 7.451H234.05a7.454 7.454 0 0 1-7.452-7.451v-24.69a7.454 7.454 0 0 1 7.452-7.451h24.683a7.453 7.453 0 0 1 7.449 7.451v24.69h.001zm70.041 140.089a7.455 7.455 0 0 1-7.452 7.451h-24.681a7.454 7.454 0 0 1-7.452-7.451v-24.683a7.454 7.454 0 0 1 7.452-7.451h24.681a7.454 7.454 0 0 1 7.452 7.451v24.683zm0-70.041a7.454 7.454 0 0 1-7.452 7.451h-24.681a7.454 7.454 0 0 1-7.452-7.451v-24.69a7.454 7.454 0 0 1 7.452-7.451h24.681a7.454 7.454 0 0 1 7.452 7.451v24.69zm0-70.048a7.454 7.454 0 0 1-7.452 7.451h-24.681a7.454 7.454 0 0 1-7.452-7.451V237.47a7.454 7.454 0 0 1 7.452-7.451h24.681a7.454 7.454 0 0 1 7.452 7.451v24.682z"/><path d="M28.535 175.59h108.261a19.812 19.812 0 0 0 19.804-19.803l-.008-36.963H336.15v36.97c0 10.935 8.871 19.805 19.806 19.805h108.275c10.935 0 19.806-8.87 19.806-19.805v-36.97c0-46.713-106.383-84.604-237.633-84.604h-.042C115.12 34.22 8.715 72.103 8.73 118.824h.064l-.064 36.963c0 10.942 8.863 19.803 19.805 19.803z"/></g></svg><svg viewBox="-1 -1 32 32" fill-rule="evenodd" clip-rule="evenodd" stroke-linejoin="round" stroke-miterlimit="1.414" width="32" height="32" id="right-arrow" x="110" y="32" xmlns="http://www.w3.org/2000/svg"><path d="M9.395 28.21a.931.931 0 0 1-.674.278.954.954 0 0 1-.674-1.628L19.907 15 8.047 3.14a.954.954 0 0 1 1.348-1.35L21.93 14.327a.954.954 0 0 1 0 1.348L9.395 28.21z" fill="#fff" fill-rule="nonzero"/></svg><svg viewBox="-1 -1 14 14" fill-rule="evenodd" clip-rule="evenodd" stroke-linejoin="round" stroke-miterlimit="1.414" width="14" height="14" id="time" x="139" y="86" xmlns="http://www.w3.org/2000/svg"><g fill="#202020" fill-rule="nonzero"><path d="M5.685 0A5.691 5.691 0 0 0 0 5.685a5.691 5.691 0 0 0 5.685 5.685 5.691 5.691 0 0 0 5.685-5.685A5.691 5.691 0 0 0 5.685 0zm0 10.16A4.48 4.48 0 0 1 1.21 5.685 4.48 4.48 0 0 1 5.685 1.21a4.48 4.48 0 0 1 4.475 4.475 4.48 4.48 0 0 1-4.475 4.475z"/><path d="M8.648 5.509H6.093V2.438a.468.468 0 1 0-.936 0v3.54c0 .258.209.468.468.468h3.023a.469.469 0 0 0 0-.937z"/></g></svg></svg>