<?xml version="1.0" encoding="UTF-8" standalone="no"?>
<!DOCTYPE svg PUBLIC "-//W3C//DTD SVG 1.1//EN" "http://www.w3.org/Graphics/SVG/1.1/DTD/svg11.dtd">
<svg width="100%" height="100%" viewBox="0 0 15 15" version="1.1" xmlns="http://www.w3.org/2000/svg" xmlns:xlink="http://www.w3.org/1999/xlink" xml:space="preserve" style="fill-rule:evenodd;clip-rule:evenodd;stroke-linejoin:round;stroke-miterlimit:1.41421;">
    <g transform="matrix(0.0285631,0,0,0.0285631,0,0)">
        <path d="M262.576,244.065C202.249,187.808 121.529,153.323 32.625,153.323L32.625,434.433C121.529,434.433 202.249,468.896 262.576,525.153C322.903,469.159 403.623,434.433 492.527,434.433L492.527,153.323C403.623,153.323 322.903,187.808 262.576,244.065ZM262.576,153.323C305.004,153.323 339.205,119.079 339.205,76.629C339.205,34.244 305.004,0 262.576,0C220.148,0 185.948,34.244 185.948,76.629C185.948,119.056 220.148,153.323 262.576,153.323Z" style="fill:rgb(118,118,118);fill-rule:nonzero;"/>
    </g>
</svg>
