<?xml version="1.0" encoding="UTF-8" standalone="no"?><!DOCTYPE svg PUBLIC "-//W3C//DTD SVG 1.1//EN" "http://www.w3.org/Graphics/SVG/1.1/DTD/svg11.dtd"><svg width="100%" height="100%" viewBox="0 0 76 83" version="1.1" xmlns="http://www.w3.org/2000/svg" xmlns:xlink="http://www.w3.org/1999/xlink" xml:space="preserve" xmlns:serif="http://www.serif.com/" style="fill-rule:evenodd;clip-rule:evenodd;stroke-linejoin:round;stroke-miterlimit:1.41421;"><g><path d="M58.345,7.194l0,-7.194l-2.771,0l0,7.194l-35.542,0l0,-7.194l-2.77,0l0,7.194l-17.262,0l0,75.998l76,0l0,-75.998l-17.655,0Zm-41.083,2.77l0,4.581l2.77,0l0,-4.581l35.541,0l0,4.581l2.771,0l0,-4.581l14.884,0l0,13.356l-70.457,0l0,-13.356l14.491,0Zm-14.491,70.458l0,-54.333l70.459,0l0,54.332l-70.459,0l0,0.001Z" style="fill:#303030;fill-rule:nonzero;"/></g></svg>