<?xml version="1.0" encoding="UTF-8" standalone="no"?>
<!DOCTYPE svg PUBLIC "-//W3C//DTD SVG 1.1//EN" "http://www.w3.org/Graphics/SVG/1.1/DTD/svg11.dtd">
<svg width="100%" height="100%" viewBox="0 0 15 14" version="1.1" xmlns="http://www.w3.org/2000/svg" xmlns:xlink="http://www.w3.org/1999/xlink" xml:space="preserve" style="fill-rule:evenodd;clip-rule:evenodd;stroke-linejoin:round;stroke-miterlimit:1.41421;">
    <g transform="matrix(0.0309143,0,0,0.0309143,0,0)">
        <path d="M60.652,75.816L60.652,15.163C60.652,6.781 67.433,0 75.817,0C84.197,0 90.978,6.781 90.978,15.163L90.978,75.816C90.978,84.196 84.197,90.977 75.817,90.977C67.433,90.978 60.652,84.196 60.652,75.816ZM318.424,90.978C326.802,90.978 333.587,84.197 333.587,75.817L333.587,15.163C333.587,6.781 326.802,0 318.424,0C310.042,0 303.256,6.781 303.256,15.163L303.256,75.816C303.256,84.196 310.042,90.978 318.424,90.978ZM485.212,363.906C485.212,430.902 430.9,485.213 363.909,485.213C296.923,485.213 242.607,430.902 242.607,363.906C242.607,296.92 296.922,242.606 363.909,242.606C430.9,242.606 485.212,296.919 485.212,363.906ZM454.89,363.906C454.89,313.745 414.08,272.93 363.91,272.93C313.744,272.93 272.934,313.744 272.934,363.906C272.934,414.077 313.744,454.886 363.91,454.886C414.08,454.886 454.89,414.077 454.89,363.906ZM121.305,181.955L60.652,181.955L60.652,242.606L121.305,242.606L121.305,181.955ZM60.652,333.584L121.305,333.584L121.305,272.93L60.652,272.93L60.652,333.584ZM151.629,242.606L212.283,242.606L212.283,181.955L151.629,181.955L151.629,242.606ZM151.629,333.584L212.283,333.584L212.283,272.93L151.629,272.93L151.629,333.584ZM30.328,360.891L30.328,151.628L363.91,151.628L363.91,212.281L394.237,212.281L394.237,94C394.237,75.579 379.545,60.651 361.394,60.651L348.747,60.651L348.747,75.817C348.747,92.518 335.151,106.142 318.425,106.142C301.694,106.142 288.099,92.518 288.099,75.817L288.099,60.651L106.14,60.651L106.14,75.817C106.14,92.518 92.547,106.142 75.818,106.142C59.085,106.142 45.491,92.518 45.491,75.817L45.491,60.651L32.859,60.651C14.707,60.651 0.001,75.579 0.001,94L0.001,360.892C0.001,379.252 14.707,394.238 32.859,394.238L212.283,394.238L212.283,363.907L32.859,363.907C31.485,363.906 30.328,362.487 30.328,360.891ZM303.256,242.606L303.256,181.955L242.608,181.955L242.608,242.606L303.256,242.606ZM409.399,363.906L363.909,363.906L363.909,318.416C363.909,310.039 357.128,303.258 348.746,303.258C340.364,303.258 333.587,310.039 333.587,318.416L333.587,379.074C333.587,387.452 340.364,394.237 348.746,394.237L409.399,394.237C417.781,394.237 424.562,387.452 424.562,379.074C424.562,370.692 417.781,363.906 409.399,363.906Z" style="fill:rgb(118,118,118);fill-rule:nonzero;"/>
    </g>
</svg>
