<?xml version="1.0" encoding="UTF-8" standalone="no"?>
<!DOCTYPE svg PUBLIC "-//W3C//DTD SVG 1.1//EN" "http://www.w3.org/Graphics/SVG/1.1/DTD/svg11.dtd">
<svg width="100%" height="100%" viewBox="0 0 182 30" version="1.1" xmlns="http://www.w3.org/2000/svg" xmlns:xlink="http://www.w3.org/1999/xlink" xml:space="preserve" style="fill-rule:evenodd;clip-rule:evenodd;stroke-linejoin:round;stroke-miterlimit:1.41421;">
    <g id="Layer-1" transform="matrix(0.707562,0,0,0.707562,-12.0952,-11.7739)">
        <path d="M136.285,16.64L133.383,16.64C140.175,20.674 144.36,25.411 144.36,30.508C144.36,45.661 112.204,56.833 72.972,56.833C50.3,56.833 30.119,52.901 17.094,46.779L17.094,49.969C30.569,56.176 50.596,60.112 72.97,60.112C115.339,60.112 146.432,47.184 146.432,31.252C146.432,25.913 142.73,20.933 136.285,16.64" style="fill:white;fill-rule:nonzero;"/>
        <path d="M34.072,41.641L28.712,33.387L27.275,33.387L32.072,24.997L28.51,24.997L23.653,33.387L28.922,41.641L34.072,41.641ZM64.343,27.668L65.502,27.668C67.572,27.668 68.492,28.464 68.492,30.248C68.492,31.242 68.206,32.032 67.649,32.532C67.229,32.907 66.675,33.02 65.262,33.02C65.26,33.02 64.671,33.02 64.343,33.024L64.343,27.668ZM64.343,35.757L66.311,35.757C66.484,35.767 67.804,35.82 69.14,35.376C70.496,34.929 72.643,33.164 72.643,30.347C72.643,28.918 72.284,27.755 71.578,26.886C70.494,25.549 68.693,24.921 65.909,24.921L60.25,24.921L60.25,41.641L64.343,41.641L64.343,35.757ZM45.317,30.56L47.108,34.987L43.393,34.987L45.317,30.56ZM42.381,37.395L48.114,37.391L49.816,41.641L54.578,41.641L47.285,25.005L44.696,25.005L37.261,41.641L40.563,41.641L42.381,37.395ZM21.753,24.997L17.094,24.997L17.094,41.641L21.753,41.641L21.753,24.997ZM88.226,38.84L82.402,38.84L82.402,24.993L78.307,24.993L78.307,41.641L88.226,41.641L88.226,38.84ZM100.115,30.56L101.905,34.987L98.197,34.987L100.115,30.56ZM97.176,37.393L102.908,37.393L104.613,41.641L109.377,41.641L102.082,25.005L99.493,25.005L92.06,41.641L95.361,41.641L97.176,37.393ZM118.572,41.641L118.572,30.94C119.894,32.921 125.729,41.641 125.729,41.641L129.454,41.641L129.454,24.993L125.288,24.993L125.288,35.644C123.963,33.637 118.274,25.014 118.274,25.014L114.404,25.005L114.404,41.641L118.572,41.641Z" style="fill:white;fill-rule:nonzero;"/>
        <path d="M160.022,34.028L158.321,34.028C158.383,32.34 158.396,31.353 158.396,29.64C158.396,27.785 158.383,26.748 158.321,24.937L160.022,24.937C159.955,26.748 159.947,27.785 159.947,29.64C159.947,31.353 159.955,32.34 160.022,34.028" style="fill:white;fill-rule:nonzero;"/>
        <path d="M169.455,24.936L170.95,24.936C170.886,26.761 170.877,27.785 170.877,29.64C170.877,31.353 170.886,32.339 170.95,34.027L169.43,34.027C167.757,31.478 165.85,28.652 164.546,26.84C164.546,29.943 164.546,31.63 164.637,34.027L163.141,34.027C163.202,32.339 163.215,31.353 163.215,29.64C163.215,27.785 163.202,26.748 163.141,24.936L164.915,24.936C166.692,27.346 168.451,29.959 169.529,31.621C169.529,28.842 169.529,27.153 169.455,24.936" style="fill:white;fill-rule:nonzero;"/>
        <path d="M177.952,34.028L176.212,34.028C176.302,32.215 176.315,31.171 176.315,29.322C176.315,28.105 176.302,27.218 176.266,26.09C174.96,26.09 174.008,26.103 173.059,26.176L173.524,24.937L180.995,24.937L180.995,26.129C180.221,26.09 179.044,26.09 177.912,26.09C177.864,27.233 177.864,28.08 177.864,29.322C177.864,31.171 177.875,32.215 177.952,34.028" style="fill:white;fill-rule:nonzero;"/>
        <path d="M184.99,26.076C184.965,27.017 184.952,27.835 184.952,28.804C186.219,28.804 187.619,28.789 188.492,28.741L188.492,29.995C187.591,29.943 186.182,29.93 184.952,29.93C184.952,31.01 184.965,31.909 184.99,32.888C186.335,32.888 188.059,32.875 189.036,32.821L188.555,34.028L183.33,34.028C183.394,32.34 183.403,31.353 183.403,29.64C183.403,27.785 183.394,26.748 183.33,24.936L188.62,24.936L188.62,26.128C187.833,26.076 186.323,26.076 184.99,26.076" style="fill:white;fill-rule:nonzero;"/>
        <path d="M193.271,26.089C193.247,26.873 193.237,28.35 193.237,29.169C193.399,29.184 193.693,29.184 194.022,29.184C195.477,29.184 196.254,28.628 196.254,27.59C196.254,26.609 195.452,26.076 194.022,26.076C193.727,26.076 193.439,26.076 193.271,26.089M193.311,34.027L191.611,34.027C191.677,32.339 191.684,31.353 191.684,29.64C191.684,27.785 191.677,26.739 191.611,24.936L194.198,24.936C196.456,24.936 197.873,25.773 197.873,27.456C197.873,28.612 197.151,29.437 196.112,29.83C196.695,30.883 197.797,32.71 198.468,33.714L196.757,34.335C196.074,33.149 195.241,31.528 194.641,30.311C194.183,30.327 193.702,30.327 193.237,30.311C193.247,31.643 193.261,32.938 193.311,34.027" style="fill:white;fill-rule:nonzero;"/>
        <path d="M207.34,24.936L208.835,24.936C208.769,26.761 208.761,27.785 208.761,29.64C208.761,31.353 208.769,32.339 208.835,34.027L207.314,34.027C205.639,31.478 203.734,28.652 202.428,26.84C202.428,29.943 202.428,31.63 202.517,34.027L201.021,34.027C201.085,32.339 201.097,31.353 201.097,29.64C201.097,27.785 201.085,26.748 201.021,24.936L202.796,24.936C204.575,27.346 206.335,29.959 207.415,31.621C207.415,28.842 207.415,27.153 207.34,24.936" style="fill:white;fill-rule:nonzero;"/>
        <path d="M213.958,30.328L216.977,30.328C216.455,28.957 215.947,27.547 215.54,26.407C215.138,27.507 214.526,28.942 213.958,30.328M210.865,34.028C211.967,31.794 213.805,27.624 214.943,24.872L216.494,24.872C217.443,27.472 218.939,31.188 220.198,34.028L218.334,34.028C218.03,33.231 217.672,32.34 217.354,31.468L213.514,31.468C213.159,32.38 212.777,33.278 212.425,34.028L210.865,34.028Z" style="fill:white;fill-rule:nonzero;"/>
        <path d="M224.894,34.028L223.151,34.028C223.241,32.215 223.257,31.171 223.257,29.322C223.257,28.105 223.241,27.218 223.207,26.09C221.9,26.09 220.946,26.103 219.997,26.176L220.463,24.937L227.933,24.937L227.933,26.129C227.163,26.09 225.982,26.09 224.85,26.09C224.803,27.233 224.803,28.08 224.803,29.322C224.803,31.171 224.814,32.215 224.894,34.028" style="fill:white;fill-rule:nonzero;"/>
        <path d="M232.007,34.028L230.305,34.028C230.366,32.34 230.379,31.353 230.379,29.64C230.379,27.785 230.366,26.748 230.305,24.937L232.007,24.937C231.942,26.748 231.932,27.785 231.932,29.64C231.932,31.353 231.942,32.34 232.007,34.028" style="fill:white;fill-rule:nonzero;"/>
        <path d="M239.573,25.923C237.709,25.923 236.546,27.36 236.546,29.472C236.546,31.621 237.761,33.024 239.573,33.024C241.438,33.024 242.628,31.606 242.628,29.472C242.628,27.333 241.389,25.923 239.573,25.923M239.573,24.784C242.455,24.784 244.396,26.62 244.396,29.361C244.396,32.277 242.304,34.17 239.573,34.17C236.697,34.17 234.769,32.356 234.769,29.616C234.769,26.712 236.85,24.784 239.573,24.784" style="fill:white;fill-rule:nonzero;"/>
        <path d="M253.273,24.936L254.771,24.936C254.706,26.761 254.692,27.785 254.692,29.64C254.692,31.353 254.706,32.339 254.771,34.027L253.248,34.027C251.574,31.478 249.67,28.652 248.363,26.84C248.363,29.943 248.363,31.63 248.456,34.027L246.955,34.027C247.023,32.339 247.033,31.353 247.033,29.64C247.033,27.785 247.023,26.748 246.955,24.936L248.734,24.936C250.509,27.346 252.27,29.959 253.348,31.621C253.348,28.842 253.348,27.153 253.273,24.936" style="fill:white;fill-rule:nonzero;"/>
        <path d="M260.009,30.328L263.024,30.328C262.507,28.957 262.001,27.547 261.595,26.407C261.19,27.507 260.577,28.942 260.009,30.328M256.916,34.028C258.015,31.794 259.858,27.624 260.996,24.872L262.545,24.872C263.497,27.472 264.991,31.188 266.244,34.028L264.382,34.028C264.079,33.231 263.723,32.34 263.405,31.468L259.566,31.468C259.211,32.38 258.83,33.278 258.47,34.028L256.916,34.028Z" style="fill:white;fill-rule:nonzero;"/>
        <path d="M270.229,32.875C271.588,32.875 273.35,32.851 274.316,32.796L273.845,34.028L268.566,34.028C268.631,32.34 268.643,31.353 268.643,29.64C268.643,27.785 268.631,26.748 268.566,24.937L270.266,24.937C270.203,26.748 270.193,27.785 270.193,29.64C270.193,30.859 270.203,31.759 270.229,32.875" style="fill:white;fill-rule:nonzero;"/>
        <path d="M160.103,41.261C160.077,42.202 160.064,43.026 160.064,43.993C161.336,43.993 162.733,43.98 163.61,43.93L163.61,45.188C162.708,45.138 161.296,45.126 160.064,45.126C160.064,46.205 160.077,47.108 160.103,48.088C161.449,48.088 163.179,48.075 164.157,48.025L163.673,49.23L158.438,49.23C158.501,47.539 158.513,46.548 158.513,44.833C158.513,42.976 158.501,41.934 158.438,40.115L163.737,40.115L163.737,41.311C162.949,41.261 161.437,41.261 160.103,41.261" style="fill:white;fill-rule:nonzero;"/>
        <path d="M173.081,40.115L174.58,40.115C174.514,41.948 174.502,42.976 174.502,44.833C174.502,46.548 174.514,47.539 174.58,49.23L173.052,49.23C171.375,46.674 169.467,43.842 168.159,42.022C168.159,45.138 168.159,46.829 168.249,49.23L166.75,49.23C166.811,47.539 166.824,46.548 166.824,44.833C166.824,42.976 166.811,41.934 166.75,40.115L168.529,40.115C170.308,42.532 172.074,45.151 173.155,46.816C173.155,44.031 173.155,42.341 173.081,40.115" style="fill:white;fill-rule:nonzero;"/>
        <path d="M185.357,48.861C184.392,49.215 183.387,49.371 181.976,49.371C179.473,49.371 177.147,47.614 177.147,44.945C177.147,41.997 179.257,39.964 182.434,39.964C183.616,39.964 184.544,40.177 185.308,40.494L184.886,41.629C184.226,41.361 183.325,41.118 182.537,41.118C180.145,41.118 178.862,42.507 178.862,44.665C178.862,46.903 180.438,48.225 182.218,48.225C182.84,48.225 183.272,48.187 183.655,48.075C183.68,47.576 183.68,47.184 183.68,46.647C183.68,46.079 183.68,45.619 183.655,45.163L185.357,45.163C185.321,45.749 185.308,46.292 185.308,46.928C185.308,47.614 185.308,48.162 185.357,48.861" style="fill:white;fill-rule:nonzero;"/>
        <path d="M189.86,48.075C191.22,48.075 192.988,48.05 193.954,47.995L193.482,49.23L188.196,49.23C188.259,47.539 188.271,46.547 188.271,44.833C188.271,42.975 188.259,41.934 188.196,40.115L189.899,40.115C189.836,41.934 189.823,42.975 189.823,44.833C189.823,46.05 189.836,46.953 189.86,48.075" style="fill:white;fill-rule:nonzero;"/>
        <path d="M198.07,49.23L196.368,49.23C196.429,47.539 196.442,46.547 196.442,44.833C196.442,42.976 196.429,41.934 196.368,40.115L198.07,40.115C198.007,41.934 197.995,42.976 197.995,44.833C197.995,46.547 198.007,47.539 198.07,49.23" style="fill:white;fill-rule:nonzero;"/>
        <path d="M206.492,41.554C205.971,41.299 205.272,41.107 204.483,41.107C203.34,41.107 202.766,41.579 202.766,42.227C202.766,42.813 203.047,43.194 204.24,43.712L205.158,44.122C206.556,44.741 207.152,45.494 207.152,46.74C207.152,48.3 205.678,49.371 203.809,49.371C202.679,49.371 201.676,49.166 200.835,48.773L201.292,47.64C202.019,48.009 202.856,48.225 203.733,48.225C204.851,48.225 205.488,47.678 205.488,47.004C205.488,46.293 205.17,45.9 204.052,45.402L202.971,44.946C201.737,44.399 201.127,43.587 201.127,42.44C201.127,41.107 202.45,39.965 204.394,39.965C205.449,39.965 206.211,40.091 206.938,40.432L206.492,41.554Z" style="fill:white;fill-rule:nonzero;"/>
        <path d="M211.614,43.967L216.152,43.967C216.139,42.582 216.124,41.604 216.061,40.114L217.779,40.114C217.714,41.934 217.7,42.975 217.7,44.833C217.7,46.547 217.714,47.539 217.779,49.23L216.061,49.23C216.124,47.652 216.139,46.686 216.152,45.137L211.614,45.137C211.627,46.686 211.638,47.652 211.688,49.23L209.986,49.23C210.05,47.539 210.061,46.547 210.061,44.833C210.061,42.975 210.05,41.934 209.986,40.114L211.688,40.114C211.638,41.604 211.627,42.582 211.614,43.967" style="fill:white;fill-rule:nonzero;"/>
    </g>
</svg>
