<?xml version="1.0" encoding="UTF-8" standalone="no"?><!DOCTYPE svg PUBLIC "-//W3C//DTD SVG 1.1//EN" "http://www.w3.org/Graphics/SVG/1.1/DTD/svg11.dtd"><svg width="100%" height="100%" viewBox="0 0 9 12" version="1.1" xmlns="http://www.w3.org/2000/svg" xmlns:xlink="http://www.w3.org/1999/xlink" xml:space="preserve" xmlns:serif="http://www.serif.com/" style="fill-rule:evenodd;clip-rule:evenodd;stroke-linejoin:round;stroke-miterlimit:1.41421;"><path id="Facebook_Places" d="M8.398,3.108c-0.044,-0.167 -0.135,-0.344 -0.201,-0.5c-0.799,-1.92 -2.545,-2.608 -3.954,-2.608c-1.887,0 -3.966,1.265 -4.243,3.873l0,0.533c0,0.022 0.008,0.222 0.019,0.322c0.155,1.243 1.136,2.564 1.868,3.807c0.788,1.331 1.606,2.641 2.416,3.951c0.5,-0.855 0.997,-1.72 1.486,-2.553c0.133,-0.244 0.287,-0.488 0.42,-0.721c0.089,-0.156 0.259,-0.311 0.336,-0.455c0.788,-1.443 2.056,-2.897 2.056,-4.329l0,-0.588c0,-0.155 -0.192,-0.699 -0.203,-0.732Zm-4.121,2.674c-0.555,0 -1.162,-0.277 -1.461,-1.043c-0.045,-0.122 -0.041,-0.366 -0.041,-0.389l0,-0.344c0,-0.976 0.829,-1.42 1.55,-1.42c0.888,0 1.575,0.71 1.575,1.598c0,0.888 -0.735,1.598 -1.623,1.598Z" style="fill:#202020;fill-rule:nonzero;"/></svg>