<?xml version="1.0" encoding="UTF-8" standalone="no"?>
<!DOCTYPE svg PUBLIC "-//W3C//DTD SVG 1.1//EN" "http://www.w3.org/Graphics/SVG/1.1/DTD/svg11.dtd">
<svg width="100%" height="100%" viewBox="0 0 20 20" version="1.1" xmlns="http://www.w3.org/2000/svg" xmlns:xlink="http://www.w3.org/1999/xlink" xml:space="preserve" style="fill-rule:evenodd;clip-rule:evenodd;stroke-linejoin:round;stroke-miterlimit:1.41421;">
    <g transform="matrix(0.0408649,0,0,0.0408649,0,0)">
        <path d="M79.538,203.658L79.538,174.664C79.538,158.214 92.865,144.888 109.314,144.888L380.111,144.888C396.56,144.888 409.887,158.214 409.887,174.664L409.887,203.644L448.044,165.488C449.644,163.887 450.482,161.672 450.337,159.409C450.202,157.148 449.096,155.059 447.304,153.667L262.99,10.25C252.238,1.886 237.181,1.886 226.427,10.25L42.107,153.666C40.314,155.059 39.209,157.147 39.073,159.408C38.929,161.671 39.765,163.887 41.367,165.487L79.538,203.658Z" style="fill:white;fill-rule:nonzero;"/>
        <path d="M484.544,188.778C481.59,187.559 478.188,188.236 475.926,190.499L273.809,392.616C266.09,400.335 255.616,404.676 244.702,404.676C233.79,404.676 223.314,400.335 215.604,392.616L13.494,190.508C11.231,188.245 7.83,187.568 4.876,188.795C1.928,190.014 0,192.897 0,196.092L0,452.814C0,470.833 14.608,485.442 32.627,485.442L456.791,485.442C474.809,485.442 489.418,470.833 489.418,452.814L489.418,196.084C489.418,192.89 487.492,190.005 484.544,188.778Z" style="fill:white;fill-rule:nonzero;"/>
        <path d="M335.121,190.435L154.305,190.435C145.297,190.435 137.991,197.739 137.991,206.749C137.991,215.758 145.297,223.062 154.305,223.062L335.121,223.062C344.131,223.062 351.435,215.757 351.435,206.749C351.435,197.739 344.131,190.435 335.121,190.435Z" style="fill:white;fill-rule:nonzero;"/>
        <path d="M335.121,255.691L154.305,255.691C145.297,255.691 137.991,262.995 137.991,272.005C137.991,281.014 145.297,288.319 154.305,288.319L335.121,288.319C344.131,288.319 351.435,281.014 351.435,272.005C351.435,262.995 344.131,255.691 335.121,255.691Z" style="fill:white;fill-rule:nonzero;"/>
    </g>
</svg>
