<?xml version="1.0" encoding="UTF-8" standalone="no"?>
<!DOCTYPE svg PUBLIC "-//W3C//DTD SVG 1.1//EN" "http://www.w3.org/Graphics/SVG/1.1/DTD/svg11.dtd">
<svg width="100%" height="100%" viewBox="0 0 20 20" version="1.1" xmlns="http://www.w3.org/2000/svg" xmlns:xlink="http://www.w3.org/1999/xlink" xml:space="preserve" style="fill-rule:evenodd;clip-rule:evenodd;stroke-linejoin:round;stroke-miterlimit:1.41421;">
    <g id="XMLID_70_" transform="matrix(0.0405863,0,0,0.0405863,-1.0148e-05,1.38886)">
        <path id="XMLID_72_" d="M484.899,323.597L435.413,208.627L355.957,208.627C326.821,208.627 303.122,184.928 303.122,155.794L303.122,151.852L189.628,151.852L189.628,155.787C189.628,169.898 184.13,183.163 174.147,193.145C164.316,202.983 150.706,208.619 136.796,208.619L57.094,208.619L7.802,323.775C-4.986,353.658 -1.913,387.969 15.988,415.103C33.882,442.228 64.215,458.557 96.721,458.557L396.063,458.557C428.598,458.557 458.959,442.196 476.843,415.013C494.736,387.839 497.76,353.489 484.899,323.597ZM196.135,402.241C196.135,406.353 192.797,409.692 188.686,409.692L164.002,409.692C159.889,409.692 156.55,406.354 156.55,402.241L156.55,377.558C156.55,373.445 159.888,370.107 164.002,370.107L188.686,370.107C192.797,370.107 196.135,373.445 196.135,377.558L196.135,402.241ZM196.135,332.2C196.135,336.313 192.797,339.651 188.686,339.651L164.002,339.651C159.889,339.651 156.55,336.313 156.55,332.2L156.55,307.51C156.55,303.397 159.888,300.059 164.002,300.059L188.686,300.059C192.797,300.059 196.135,303.397 196.135,307.51L196.135,332.2ZM196.135,262.152C196.135,266.265 192.797,269.603 188.686,269.603L164.002,269.603C159.889,269.603 156.55,266.265 156.55,262.152L156.55,237.47C156.55,233.357 159.888,230.019 164.002,230.019L188.686,230.019C192.797,230.019 196.135,233.357 196.135,237.47L196.135,262.152ZM266.183,402.241C266.183,406.353 262.845,409.692 258.734,409.692L234.05,409.692C229.936,409.692 226.598,406.354 226.598,402.241L226.598,377.551C226.598,373.438 229.936,370.1 234.05,370.1L258.733,370.1C262.844,370.1 266.182,373.438 266.182,377.551L266.182,402.241L266.183,402.241ZM266.183,332.2C266.183,336.313 262.845,339.651 258.734,339.651L234.044,339.651C229.93,339.651 226.592,336.313 226.592,332.2L226.592,307.51C226.592,303.397 229.93,300.059 234.044,300.059L258.734,300.059C262.845,300.059 266.183,303.397 266.183,307.51L266.183,332.2ZM266.183,262.152C266.183,266.265 262.845,269.603 258.734,269.603L234.05,269.603C229.936,269.603 226.598,266.265 226.598,262.152L226.598,237.462C226.598,233.349 229.936,230.011 234.05,230.011L258.733,230.011C262.844,230.011 266.182,233.349 266.182,237.462L266.182,262.152L266.183,262.152ZM336.224,402.241C336.224,406.353 332.886,409.692 328.772,409.692L304.091,409.692C299.977,409.692 296.639,406.354 296.639,402.241L296.639,377.558C296.639,373.445 299.977,370.107 304.091,370.107L328.772,370.107C332.886,370.107 336.224,373.445 336.224,377.558L336.224,402.241ZM336.224,332.2C336.224,336.313 332.886,339.651 328.772,339.651L304.091,339.651C299.977,339.651 296.639,336.313 296.639,332.2L296.639,307.51C296.639,303.397 299.977,300.059 304.091,300.059L328.772,300.059C332.886,300.059 336.224,303.397 336.224,307.51L336.224,332.2ZM336.224,262.152C336.224,266.265 332.886,269.603 328.772,269.603L304.091,269.603C299.977,269.603 296.639,266.265 296.639,262.152L296.639,237.47C296.639,233.357 299.977,230.019 304.091,230.019L328.772,230.019C332.886,230.019 336.224,233.357 336.224,237.47L336.224,262.152Z" style="fill:white;fill-rule:nonzero;"/>
        <path id="XMLID_71_" d="M28.535,175.59L136.796,175.59C142.044,175.59 147.086,173.503 150.794,169.793C154.511,166.077 156.6,161.036 156.6,155.787L156.592,118.824L336.15,118.824L336.15,155.794C336.15,166.729 345.021,175.599 355.956,175.599L464.231,175.599C475.166,175.599 484.037,166.729 484.037,155.794L484.037,118.831L484.037,118.824C484.037,72.111 377.654,34.22 246.404,34.22C246.386,34.22 246.362,34.22 246.362,34.22C115.12,34.22 8.715,72.103 8.73,118.824L8.794,118.824L8.73,155.787C8.73,166.729 17.593,175.59 28.535,175.59Z" style="fill:white;fill-rule:nonzero;"/>
    </g>
</svg>
