<?xml version="1.0" encoding="UTF-8" standalone="no"?><!DOCTYPE svg PUBLIC "-//W3C//DTD SVG 1.1//EN" "http://www.w3.org/Graphics/SVG/1.1/DTD/svg11.dtd"><svg width="100%" height="100%" viewBox="0 0 12 12" version="1.1" xmlns="http://www.w3.org/2000/svg" xmlns:xlink="http://www.w3.org/1999/xlink" xml:space="preserve" xmlns:serif="http://www.serif.com/" style="fill-rule:evenodd;clip-rule:evenodd;stroke-linejoin:round;stroke-miterlimit:1.41421;"><g><path d="M5.685,0c-3.135,0 -5.685,2.55 -5.685,5.685c0,3.135 2.55,5.685 5.685,5.685c3.135,0 5.685,-2.55 5.685,-5.685c0,-3.135 -2.55,-5.685 -5.685,-5.685Zm0,10.16c-2.468,0 -4.475,-2.007 -4.475,-4.475c0,-2.468 2.007,-4.475 4.475,-4.475c2.468,0 4.475,2.007 4.475,4.475c0,2.468 -2.007,4.475 -4.475,4.475Z" style="fill:#202020;fill-rule:nonzero;"/><path d="M8.648,5.509l-2.555,0l0,-3.071c0,-0.259 -0.21,-0.468 -0.468,-0.468c-0.259,0 -0.468,0.209 -0.468,0.468l0,3.54c0,0.258 0.209,0.468 0.468,0.468l3.023,0c0.258,0 0.468,-0.21 0.468,-0.468c0,-0.259 -0.21,-0.469 -0.468,-0.469Z" style="fill:#202020;fill-rule:nonzero;"/></g></svg>